<svg xmlns="http://www.w3.org/2000/svg" viewBox="0 0 1200 560" role="img" aria-labelledby="eg-title eg-desc" font-family="'Inter',system-ui,sans-serif" style="max-width:100%;height:auto;background:transparent">
<title id="eg-title">Solar eclipse shadow geometry: globe vs. dome model (Aug 12, 2026)</title>
<desc id="eg-desc">Two-panel schematic comparing the umbral shadow geometry on a spherical Earth with a distant Sun and Moon (left) to the geometry produced by the dome model with Sun at 5,733 km and Moon at 2,534 km altitude (right). The globe geometry yields the observed 294-km-wide path of totality; the dome geometry, using its own published parameters and the observed angular sizes, produces a totality zone roughly 1.3 km wide.</desc>
<defs>
<marker id="eg-arrow" viewBox="0 0 10 10" refX="9" refY="5" markerWidth="6" markerHeight="6" orient="auto"><path d="M0,0 L10,5 L0,10 z" fill="currentColor"/></marker>
<style><![CDATA[
.eg-title{font:600 18px 'Inter',sans-serif;fill:var(--heading,#2E4057);text-anchor:middle}
.eg-sub{font:500 13px 'Inter',sans-serif;fill:var(--ink-2,#3A352D);text-anchor:middle}
.eg-label{font:500 12px 'Inter',sans-serif;fill:var(--ink-2,#3A352D)}
.eg-num{font:600 12px 'JetBrains Mono',monospace;fill:var(--ink,#181715)}
.eg-callout{font:600 13px 'Inter',sans-serif;fill:var(--semantic-crit,#7a2e2e)}
.eg-callout-good{font:600 13px 'Inter',sans-serif;fill:var(--semantic-good,#2e5a2e)}
.eg-rule{stroke:var(--rule,#E4DDCB);stroke-width:1}
.eg-axis{stroke:var(--ink-3,#6E675B);stroke-width:1}
.eg-cone{fill:none;stroke:var(--ink-2,#3A352D);stroke-width:1}
.eg-cone-fill{fill:var(--ink-2,#3A352D);fill-opacity:0.10;stroke:var(--ink-2,#3A352D);stroke-width:0.5}
.eg-shadow{fill:var(--semantic-warn,#8a5a1e);fill-opacity:0.18;stroke:var(--semantic-warn,#8a5a1e);stroke-width:1}
.eg-disc{fill:var(--card-bg,#fafafa);stroke:var(--ink,#181715);stroke-width:1.2}
.eg-sun{fill:var(--semantic-warn-soft,#f3e6d3);stroke:var(--semantic-warn,#8a5a1e);stroke-width:1.2}
.eg-moon{fill:var(--ink-3,#6E675B);stroke:var(--ink,#181715);stroke-width:1.2}
.eg-divider{stroke:var(--rule,#E4DDCB);stroke-width:1;stroke-dasharray:6 4}
.eg-break{stroke:var(--ink-3,#6E675B);stroke-width:1.2;fill:none}
]]></style>
</defs>

<!-- ========================== LEFT PANEL: GLOBE GEOMETRY ========================== -->
<g transform="translate(0,0)">
  <text class="eg-title" x="290" y="34">Globe geometry</text>
  <text class="eg-sub" x="290" y="56">Distant Sun and Moon, narrow umbral cone</text>

  <!-- Sun (off-canvas) with break-line -->
  <circle class="eg-sun" cx="290" cy="100" r="34"/>
  <text class="eg-label" x="290" y="105" text-anchor="middle">Sun</text>
  <text class="eg-num" x="290" y="146" text-anchor="middle">~150,000,000 km away</text>
  <!-- break-line indicating distance -->
  <path class="eg-break" d="M270,160 q5,-6 10,0 q5,6 10,0 q5,-6 10,0 q5,6 10,0"/>

  <!-- Moon (off-canvas-ish) with break-line -->
  <circle class="eg-moon" cx="290" cy="220" r="14"/>
  <text class="eg-label" x="312" y="225">Moon</text>
  <text class="eg-num" x="290" y="262" text-anchor="middle">~384,400 km away</text>
  <path class="eg-break" d="M270,278 q5,-6 10,0 q5,6 10,0 q5,-6 10,0 q5,6 10,0"/>

  <!-- Earth surface arc (large radius gives near-flat appearance, slight curve) -->
  <path d="M40,470 Q290,455 540,470 L540,495 L40,495 Z" fill="var(--bg,#fff)" stroke="var(--ink,#181715)" stroke-width="1.4"/>
  <text class="eg-label" x="290" y="488" text-anchor="middle">Earth surface (R ≈ 6,371 km)</text>

  <!-- Umbra cone — narrow, converging just above surface -->
  <path class="eg-cone-fill" d="M276,234 L304,234 L298,460 L282,460 Z"/>
  <path class="eg-cone" d="M276,234 L298,460"/>
  <path class="eg-cone" d="M304,234 L282,460"/>
  <!-- shadow on ground -->
  <ellipse class="eg-shadow" cx="290" cy="461" rx="20" ry="3"/>

  <!-- Annotation: shadow path width -->
  <line class="eg-axis" x1="270" y1="510" x2="310" y2="510" marker-start="url(#eg-arrow)" marker-end="url(#eg-arrow)" stroke-width="1.2"/>
  <text class="eg-callout-good" x="290" y="530" text-anchor="middle">~294 km path of totality</text>
  <text class="eg-num" x="290" y="546" text-anchor="middle">(observed Aug 12, 2026)</text>

  <!-- Cone label -->
  <text class="eg-label" x="335" y="345">Umbra</text>
  <text class="eg-label" x="335" y="361" font-size="10">(converges to ~287-km</text>
  <text class="eg-label" x="335" y="374" font-size="10">circle on surface)</text>
</g>

<!-- divider -->
<line class="eg-divider" x1="585" y1="20" x2="585" y2="540"/>

<!-- ========================== RIGHT PANEL: DOME GEOMETRY ========================== -->
<!--
   Vertical scale (right panel): 0..6000 km → y from 460 (z=0) to 60 (z=6000 km).
   yScale = 460 - (z * 400/6000) = 460 - z*0.0667
   z=5733 (sun): y = 460 - 5733*0.0667 = 460 - 382 = 78
   z=2534 (moon): y = 460 - 2534*0.0667 = 460 - 169 = 291
   Horizontal scale: arbitrary; show ±200 km around sub-moon point at large zoom for the shadow.
-->
<g transform="translate(620,0)">
  <text class="eg-title" x="290" y="34">Dome geometry</text>
  <text class="eg-sub" x="290" y="56">Local Sun (5,733 km) and Moon (2,534 km) — to scale vertically</text>

  <!-- y-axis tick marks for altitude -->
  <line class="eg-axis" x1="60" y1="78" x2="60" y2="460"/>
  <text class="eg-num" x="56" y="82" text-anchor="end">5,733</text>
  <text class="eg-num" x="56" y="295" text-anchor="end">2,534</text>
  <text class="eg-num" x="56" y="464" text-anchor="end">0</text>
  <text class="eg-label" x="22" y="270" text-anchor="middle" transform="rotate(-90,22,270)">altitude (km)</text>
  <!-- ticks -->
  <line class="eg-axis" x1="56" y1="78" x2="64" y2="78"/>
  <line class="eg-axis" x1="56" y1="291" x2="64" y2="291"/>
  <line class="eg-axis" x1="56" y1="460" x2="64" y2="460"/>

  <!-- Sun (proportional radius is tiny; draw slightly enlarged for visibility, callout the actual size) -->
  <!-- Actual R_sun = 26.3 km. At hScale 0.5 km/px → 53 px. We'll show as 16-px disk with magnified size callout. -->
  <circle class="eg-sun" cx="290" cy="78" r="14"/>
  <text class="eg-label" x="312" y="82">Sun</text>
  <text class="eg-num" x="312" y="98">R ≈ 26 km (= h·tan 0.263°)</text>

  <!-- Moon -->
  <circle class="eg-moon" cx="290" cy="291" r="9"/>
  <text class="eg-label" x="307" y="295">Moon</text>
  <text class="eg-num" x="307" y="311">R ≈ 12 km (= h·tan 0.271°)</text>

  <!-- Sun-to-moon vertical separation label -->
  <line class="eg-axis" x1="498" y1="78" x2="498" y2="291" marker-start="url(#eg-arrow)" marker-end="url(#eg-arrow)"/>
  <text class="eg-num" x="506" y="187">3,199 km</text>

  <!-- Disc surface -->
  <line stroke="var(--ink,#181715)" stroke-width="1.4" x1="60" y1="460" x2="540" y2="460"/>
  <text class="eg-label" x="290" y="478" text-anchor="middle">Disc surface (flat, R = 20,015 km)</text>

  <!-- Umbra cone from moon (R_moon = 12 km tip) tapering to vertex below disc surface -->
  <!-- Umbra reaches surface at radius 0.66 km - essentially a point -->
  <!-- Penumbra outer edge: R_p = 42 km on disc -->
  <!-- Draw: cone edges from moon edges to surface -->
  <!-- Use horizontal scale: 1 km = 1.5 px; so 42 km = 63 px from center -->
  <path class="eg-cone-fill" d="M281,291 L299,291 L301,460 L279,460 Z" opacity="0.4"/>
  <path class="eg-cone" d="M281,291 L301,460"/>
  <path class="eg-cone" d="M299,291 L279,460"/>
  <!-- Penumbra cone -->
  <path d="M281,291 L228,460 M299,291 L352,460" class="eg-cone" stroke-dasharray="4 3" opacity="0.7"/>

  <!-- Shadow markers on disc -->
  <ellipse class="eg-shadow" cx="290" cy="461" rx="1.5" ry="1.5"/>
  <ellipse fill="none" stroke="var(--semantic-warn,#8a5a1e)" stroke-width="0.8" stroke-dasharray="3 2" cx="290" cy="461" rx="63" ry="2.5"/>

  <!-- Callout: totality dot -->
  <line class="eg-axis" x1="290" y1="500" x2="310" y2="500"/>
  <line class="eg-axis" x1="310" y1="500" x2="370" y2="510"/>
  <text class="eg-callout" x="375" y="514">~1.3 km totality zone</text>
  <text class="eg-num" x="375" y="528">(R = 0.66 km)</text>

  <!-- Callout: penumbra width -->
  <line class="eg-axis" x1="227" y1="487" x2="353" y2="487" marker-start="url(#eg-arrow)" marker-end="url(#eg-arrow)"/>
  <text class="eg-num" x="290" y="498" text-anchor="middle" font-size="11">~85 km penumbra</text>

  <!-- Annotation panel: ratios -->
  <rect x="60" y="120" width="208" height="120" fill="var(--card-bg,#fafafa)" stroke="var(--rule,#E4DDCB)" stroke-width="1" rx="4"/>
  <text class="eg-label" x="68" y="140" font-weight="600">Dome model produces:</text>
  <text class="eg-num" x="68" y="160">• 1.3 km totality circle</text>
  <text class="eg-num" x="68" y="178">  (≈ 1/220 of observed)</text>
  <text class="eg-num" x="68" y="200">• 0.9 sec at one observer</text>
  <text class="eg-num" x="68" y="218">  (≈ 1/150 of observed 138 s)</text>
  <text class="eg-num" x="68" y="236" fill="var(--semantic-crit,#7a2e2e)">~1.3 km track (≈ 1/220 of observed path)</text>
</g>

<!-- footer note -->
<text class="eg-num" x="600" y="555" text-anchor="middle" fill="var(--ink-3,#6E675B)">Geometry not horizontally to scale; see annotated dimensions. Vertical altitudes to scale within each panel.</text>
</svg>
